<?xml version="1.0" encoding="utf-8"?>
<!-- Generator: Adobe Illustrator 24.1.2, SVG Export Plug-In . SVG Version: 6.00 Build 0)  -->
<svg version="1.1" id="Layer_1" xmlns="http://www.w3.org/2000/svg" xmlns:xlink="http://www.w3.org/1999/xlink" x="0px" y="0px"
	 viewBox="0 0 200 200" style="enable-background:new 0 0 200 200;" xml:space="preserve">
<style type="text/css">
	.st0{fill:#329A63;}
	.st1{fill:#C6D92C;}
	.st2{fill:#FFFFFF;}
	.st3{fill:none;}
	.st4{opacity:0.8;fill:#2861AC;}
	.st5{opacity:0.6;fill:#329A63;}
	.st6{fill:#404041;}
	.st7{fill:#2861AC;}
</style>
<circle class="st0" cx="100" cy="100" r="99.54"/>
<g id="XMLID_1_">
	<path id="XMLID_4_" class="st2" d="M56.75,110.85l-22.66,0.38c2.68,15.8,10.93,29.7,22.66,39.63V110.85z"/>
	<path id="XMLID_2_" class="st2" d="M99.86,33.36c-34.81,0-63.38,26.62-66.45,60.58l0.85,0.01h21.8c0,0-2.72-37.93,37.79-40.48V70.6
		c-1.68-0.85-23.42,0.83-20.57,22.36l11.06-0.19c1.43-6.75,4.68-12.71,9.77-17.88c6.93-7.24,15.27-10.84,25.02-10.78
		c9.8,0.06,18.16,3.74,25.06,11.06c1.85,1.9,3.45,3.92,4.8,6.08l-13.63,10.53c-0.85-1.52-1.9-2.97-3.15-4.34
		c-3.65-3.79-8.04-5.7-13.17-5.73c-5.08-0.03-9.46,1.83-13.16,5.58c-3.59,3.8-5.4,8.35-5.43,13.64c-0.03,5.29,1.74,9.86,5.29,13.7
		c3.65,3.79,8.02,5.7,13.09,5.73c5.13,0.03,9.54-1.83,13.23-5.58c1.32-1.35,2.38-2.79,3.19-4.3l13.52,10.68
		c-1.37,2.14-2.99,4.17-4.86,6.1c-6.98,7.19-15.37,10.75-25.17,10.7c-9.76-0.05-18.06-3.71-24.91-10.98
		c-4.63-4.84-7.7-10.33-9.22-16.45H74.06v50.94c7.94,3.33,16.65,5.17,25.8,5.17c36.85,0,66.72-29.84,66.72-66.64
		C166.59,63.2,136.71,33.36,99.86,33.36z"/>
</g>
</svg>
